<?xml version="1.0" standalone="no"?>
<!DOCTYPE svg PUBLIC "-//W3C//DTD SVG 20010904//EN"
 "http://www.w3.org/TR/2001/REC-SVG-20010904/DTD/svg10.dtd">
<svg version="1.0" xmlns="http://www.w3.org/2000/svg"
 width="498.000000pt" height="430.000000pt" viewBox="0 0 498.000000 430.000000"
 preserveAspectRatio="xMidYMid meet">

<g transform="translate(0.000000,430.000000) scale(0.100000,-0.100000)"
fill="#000000" stroke="none">
<path d="M0 4178 l0 -123 18 35 c10 21 26 36 39 38 24 4 21 11 62 -163 12 -49
21 -102 21 -117 0 -19 5 -28 16 -28 14 0 16 10 10 73 -3 39 -8 108 -11 152 -3
44 -7 105 -10 135 -6 64 9 103 43 108 38 6 52 -15 52 -77 0 -31 7 -76 16 -101
9 -25 18 -91 21 -148 3 -56 9 -104 12 -107 4 -2 13 0 19 4 10 6 11 57 6 224
l-7 217 -154 0 -153 0 0 -122z"/>
<path d="M395 4233 c0 -52 4 -72 18 -86 16 -16 18 -34 16 -154 -3 -123 -1
-137 16 -149 28 -21 54 -17 64 9 5 12 25 60 44 107 19 47 42 109 51 139 22 74
42 103 69 99 19 -3 22 -9 23 -53 0 -46 -18 -133 -45 -210 -6 -16 -13 -41 -15
-55 -3 -14 -13 -35 -23 -46 -26 -29 -40 -56 -63 -120 -17 -51 -18 -59 -5 -67
20 -11 20 -31 0 -23 -24 9 -17 -14 17 -53 44 -50 50 -53 99 -35 24 8 75 16
113 17 60 2 69 0 72 -17 4 -26 -6 -46 -23 -46 -8 0 -27 -6 -41 -14 -15 -7 -43
-22 -63 -31 -19 -10 -52 -33 -73 -51 -21 -18 -53 -38 -71 -43 -18 -5 -50 -24
-70 -42 -21 -19 -44 -33 -52 -31 -10 2 -13 -2 -9 -16 9 -27 -32 -44 -76 -31
-47 13 -57 11 -25 -7 27 -15 35 -38 17 -49 -5 -3 -10 -16 -10 -29 0 -12 -4
-26 -9 -31 -6 -6 -11 -36 -13 -67 -3 -53 -5 -58 -25 -58 -16 0 -23 6 -23 20 0
11 -4 20 -10 20 -5 0 -10 -11 -10 -24 0 -29 -16 -36 -83 -36 -29 -1 -70 -7
-92 -15 -21 -8 -40 -13 -40 -12 -18 46 -19 67 -8 111 23 88 27 242 9 351 -8
55 -15 148 -15 205 1 58 1 123 1 145 1 22 -6 90 -15 150 -14 102 -15 28 -16
-1082 l-1 -1191 33 -7 c69 -14 153 -68 100 -63 -10 1 -44 0 -75 0 l-58 -2 0
-780 0 -780 2490 0 2490 0 0 703 c-1 694 -1 702 -20 677 -10 -14 -26 -33 -34
-42 -9 -10 -16 -24 -16 -32 0 -8 -5 -18 -11 -21 -6 -4 -8 -14 -5 -22 3 -8 2
-12 -3 -9 -11 7 -32 -40 -25 -59 4 -8 1 -15 -5 -15 -6 0 -11 -7 -11 -15 0 -9
-7 -18 -15 -21 -8 -4 -15 -15 -15 -25 0 -10 -5 -19 -11 -19 -6 0 -9 -6 -6 -14
8 -19 -22 -128 -38 -141 -7 -5 -20 -41 -29 -80 -21 -90 -21 -88 -27 -100 -6
-9 -19 -55 -24 -80 -1 -5 -3 -25 -3 -42 -2 -29 -5 -33 -31 -33 -25 0 -31 -7
-62 -72 -36 -79 -46 -122 -57 -238 l-8 -75 -7 55 c-13 90 -20 591 -8 615 13
26 49 176 56 235 3 25 8 57 10 73 6 35 -13 35 -21 -1 -4 -15 -13 -37 -21 -50
-8 -13 -12 -30 -9 -38 3 -8 1 -14 -4 -14 -6 0 -10 -9 -10 -19 0 -10 -7 -21
-15 -25 -8 -3 -15 -14 -15 -24 0 -28 -28 -50 -36 -29 -3 9 -12 13 -20 10 -8
-3 -14 -2 -13 3 3 20 -2 34 -12 34 -6 0 -9 -9 -6 -20 3 -12 1 -18 -5 -14 -5 4
-7 23 -4 43 l5 36 -14 -30 c-15 -35 -24 -256 -11 -292 4 -13 3 -23 -2 -23 -5
0 -14 17 -20 37 -9 28 -9 78 -1 191 9 127 15 163 35 205 13 29 24 58 24 65 0
7 11 37 25 65 18 39 37 60 77 86 88 58 175 79 401 97 l77 7 0 669 0 670 -82
-7 c-69 -6 -81 -5 -70 6 7 8 42 15 82 17 l70 4 -1 212 c-1 116 -4 202 -6 191
-3 -10 -12 -29 -20 -42 -11 -16 -14 -45 -12 -105 3 -72 1 -83 -14 -86 -13 -3
-17 3 -17 23 0 15 -4 24 -10 20 -5 -3 -10 -17 -10 -30 0 -20 -6 -25 -37 -30
-21 -4 -60 -11 -86 -16 -70 -13 -94 -5 -102 38 -3 19 -14 49 -24 66 -21 37
-32 77 -22 77 25 0 49 -34 55 -80 4 -27 10 -50 14 -50 15 0 30 23 25 36 -3 8
4 17 18 22 l23 9 -23 6 c-14 3 -20 10 -16 17 4 6 12 9 19 7 6 -3 20 1 31 9 27
20 32 18 30 -16 -2 -42 14 -37 55 15 19 25 41 44 49 42 8 -1 16 4 19 12 3 8 0
11 -7 7 -7 -5 -9 2 -5 23 3 16 1 37 -4 48 -10 16 -11 16 -21 -9 -6 -16 -15
-28 -22 -28 -10 0 -9 15 8 87 7 31 -60 103 -97 103 -30 0 -40 15 -40 58 0 36
-14 56 -34 49 -23 -9 -38 -54 -30 -93 6 -32 7 -32 28 -19 33 22 39 6 10 -28
-14 -16 -23 -36 -20 -44 4 -8 6 -21 6 -29 0 -8 5 -14 10 -14 6 0 10 13 10 29
0 31 33 81 46 69 4 -5 2 -27 -5 -50 -14 -48 -59 -123 -68 -114 -4 3 2 15 12
26 24 27 7 26 -22 -2 l-23 -21 0 70 c0 80 -17 124 -55 141 -30 14 -31 22 -5
55 11 14 20 33 20 44 -1 10 -10 0 -22 -25 -32 -66 -50 -54 -65 46 -7 46 -26
114 -43 152 -35 80 -70 217 -70 276 0 40 22 75 37 60 4 -4 1 -11 -7 -17 -12
-7 -11 -10 8 -15 18 -5 22 -13 22 -49 0 -37 3 -44 25 -49 17 -4 25 -13 25 -29
0 -12 6 -31 14 -42 7 -11 19 -38 26 -60 15 -48 34 -65 73 -65 28 0 29 2 22 33
-13 55 -17 317 -6 319 6 0 16 1 22 2 7 1 14 -17 16 -39 2 -22 10 -46 18 -55 7
-8 16 -33 20 -55 4 -22 13 -57 21 -78 8 -20 14 -49 14 -62 0 -28 38 -72 50
-58 4 4 4 66 -1 138 -4 71 -5 133 -3 137 15 24 24 5 55 -114 6 -24 15 -54 21
-67 5 -13 6 -48 2 -77 -6 -53 -6 -53 30 -75 31 -18 35 -25 30 -47 -4 -15 -11
-35 -15 -44 -21 -40 4 -53 35 -19 14 16 17 31 12 73 -3 29 -5 62 -4 73 0 11 0
34 0 50 0 17 0 41 0 55 0 14 2 123 4 243 l5 217 -2293 0 -2293 0 0 -67z m2221
-358 c10 -8 29 -15 40 -15 17 0 23 -8 27 -32 2 -18 1 -37 -3 -43 -4 -5 -10
-22 -14 -37 -8 -36 -18 -35 -34 2 -16 34 -32 40 -32 10 0 -13 -5 -18 -15 -14
-8 4 -15 1 -15 -5 0 -20 -42 -5 -56 20 -7 13 -13 19 -14 13 0 -7 -9 -14 -21
-17 l-21 -6 21 -22 c21 -23 27 -50 14 -63 -4 -4 -6 -24 -4 -45 2 -36 1 -38
-36 -47 -51 -12 -48 -28 7 -32 24 -2 50 -8 57 -14 7 -5 18 -6 25 -2 18 12 31
12 45 2 6 -5 14 -4 18 2 11 18 37 -27 30 -50 -10 -31 12 -24 23 8 l9 27 7 -33
c5 -22 16 -36 32 -42 21 -8 23 -14 19 -46 -3 -27 0 -41 13 -51 16 -14 16 -14
-2 -9 -10 4 -25 1 -32 -5 -7 -6 -19 -9 -26 -6 -7 2 -24 -5 -37 -17 -16 -14
-25 -17 -28 -9 -7 19 -53 -27 -53 -53 0 -12 7 -39 17 -60 9 -22 15 -55 14 -75
-1 -22 4 -41 13 -49 18 -14 30 -70 22 -98 -8 -25 -53 -47 -92 -43 -20 1 -38
-4 -50 -16 -17 -17 -16 -18 29 -21 32 -2 47 -7 47 -17 0 -8 15 -18 33 -23 25
-6 32 -14 32 -33 0 -21 -7 -26 -70 -41 -81 -20 -147 -31 -192 -32 -19 -1 -34
-7 -34 -13 -3 -24 -4 -29 -23 -73 -11 -25 -26 -53 -34 -62 -12 -14 -11 -21 3
-53 10 -19 34 -49 53 -65 44 -36 35 -50 -13 -24 -28 15 -37 16 -44 6 -4 -7
-15 -10 -24 -6 -14 5 -16 1 -10 -27 3 -19 16 -41 27 -50 12 -10 19 -20 16 -22
-10 -10 -48 30 -69 71 -12 24 -21 62 -22 89 l-1 48 -19 -40 c-10 -22 -22 -57
-25 -78 -4 -20 -11 -40 -15 -43 -5 -3 -9 -16 -9 -30 0 -26 -17 -33 -26 -9 -9
23 -23 8 -19 -20 1 -14 -2 -28 -6 -31 -5 -3 -9 4 -9 14 0 24 -26 49 -32 31 -2
-7 -8 -6 -16 4 -11 13 -8 16 17 22 17 4 34 11 37 17 8 12 -9 9 -64 -13 -26
-11 -36 -11 -52 -1 -11 6 -31 12 -45 12 -15 0 -24 4 -21 9 3 5 32 9 63 8 51 0
64 5 113 38 52 37 130 123 130 144 0 5 -17 41 -38 79 -32 60 -39 68 -55 58
-21 -13 -37 5 -37 44 0 14 -6 37 -14 52 -8 14 -19 43 -26 65 -7 21 -19 47 -26
58 -20 31 -26 172 -7 190 8 8 19 15 25 15 8 0 8 33 2 113 -18 240 -7 303 72
389 24 26 44 53 44 59 0 20 49 77 72 85 13 4 39 17 58 30 35 24 186 52 215 40
7 -2 35 2 61 9 27 7 52 14 55 14 3 1 14 -6 25 -14z m1790 -341 c-3 -8 -2 -12
3 -9 5 3 12 1 15 -4 7 -11 -54 -36 -111 -46 -24 -4 -43 -11 -43 -16 0 -12 -27
-12 -35 1 -20 33 67 89 139 90 30 0 37 -3 32 -16z m222 -158 c-4 -29 -22 -23
-26 9 -3 19 0 24 13 19 9 -4 15 -15 13 -28z m-64 -9 c32 -23 -9 -66 -50 -50
-19 7 -18 23 1 23 8 0 15 9 15 20 0 23 9 25 34 7z m210 -119 c-16 -28 -48 -58
-63 -58 -10 0 -1 13 24 35 44 38 50 41 39 23z m-2007 -34 c-3 -3 -12 -4 -19
-1 -8 3 -5 6 6 6 11 1 17 -2 13 -5z m1880 -16 c-21 -7 -32 -7 -40 1 -8 8 0 11
29 10 39 -1 39 -1 11 -11z m-1902 -50 c40 -26 40 -36 0 -58 -29 -16 -30 -15
-58 17 -16 19 -28 35 -26 36 2 1 13 7 24 14 11 6 21 12 23 12 1 1 18 -9 37
-21z m25 -119 c0 -11 -44 -19 -53 -10 -5 5 -1 18 10 29 16 17 19 18 31 4 6 -9
12 -19 12 -23z m87 -25 c3 -9 -2 -23 -12 -32 -17 -16 -17 -16 -12 0 3 10 2 20
-4 23 -11 7 -3 25 12 25 5 0 12 -7 16 -16z m-74 -24 c3 -11 2 -20 -2 -20 -5 0
-16 9 -26 20 -18 19 -17 20 2 20 12 0 23 -8 26 -20z m53 -295 c-6 -30 -10 -34
-22 -25 -17 15 -18 34 -2 60 18 28 32 8 24 -35z m-198 29 c21 -4 22 -6 7 -34
-10 -18 -23 -30 -36 -30 -11 0 -17 -4 -14 -10 3 -5 15 -10 26 -10 10 0 19 -7
19 -15 0 -8 -4 -15 -10 -15 -5 0 -10 -5 -10 -11 0 -22 -32 -40 -102 -58 -62
-16 -76 -17 -103 -5 -18 7 -42 10 -53 7 -21 -5 -22 -2 -22 48 0 73 27 107 95
121 118 24 137 26 203 12z m-1152 -311 c-4 -5 -32 -8 -62 -8 -30 0 -54 3 -54
8 0 4 28 7 62 7 34 0 58 -3 54 -7z m44 -3 c0 -5 -4 -10 -10 -10 -5 0 -10 5
-10 10 0 6 5 10 10 10 6 0 10 -4 10 -10z m330 0 c0 -12 -8 -12 -35 0 -18 8
-17 9 8 9 15 1 27 -3 27 -9z m675 0 c-4 -6 -1 -18 6 -26 12 -14 9 -14 -25 0
-21 9 -41 17 -45 17 -3 1 10 5 29 9 19 4 36 8 38 9 2 0 0 -4 -3 -9z m-1565
-25 c52 -8 98 -15 103 -15 11 0 8 -40 -3 -40 -6 0 -13 7 -16 15 -5 13 -11 12
-35 -6 -34 -24 -61 -71 -54 -92 14 -36 -114 -117 -185 -117 -40 0 -40 0 -40
40 0 81 19 136 64 184 23 25 49 46 57 46 8 0 57 -7 109 -15z m1473 -26 c12 -7
33 -23 47 -36 23 -23 23 -25 7 -35 -10 -5 -33 -22 -50 -37 -39 -34 -80 -35
-85 -2 -2 12 -9 20 -15 18 -7 -3 -11 -10 -9 -16 3 -17 -35 -64 -42 -52 -10 16
-4 129 8 153 19 38 74 41 139 7z m894 15 c-3 -3 -12 -4 -19 -1 -8 3 -5 6 6 6
11 1 17 -2 13 -5z m38 -4 c3 -5 -1 -10 -10 -10 -9 0 -13 5 -10 10 3 6 8 10 10
10 2 0 7 -4 10 -10z m-1255 -40 c0 -5 -5 -10 -11 -10 -5 0 -7 5 -4 10 3 6 8
10 11 10 2 0 4 -4 4 -10z m1945 -120 c3 -5 1 -10 -4 -10 -6 0 -11 5 -11 10 0
6 2 10 4 10 3 0 8 -4 11 -10z m162 -81 c6 -6 9 -18 6 -25 -3 -8 0 -14 7 -14 6
0 8 -5 5 -10 -7 -12 -65 18 -65 33 0 5 8 3 17 -4 15 -13 16 -12 11 9 -7 24 1
29 19 11z m-1902 -19 c-3 -6 -21 -17 -38 -26 -36 -19 -31 -9 10 17 34 21 36
22 28 9z m2005 -30 c0 -5 -7 -7 -15 -4 -8 4 -12 10 -9 15 6 11 24 2 24 -11z
m-2085 -20 c-3 -5 -11 -10 -16 -10 -6 0 -7 5 -4 10 3 6 11 10 16 10 6 0 7 -4
4 -10z m2205 0 c8 0 26 -9 40 -20 24 -19 24 -19 2 -13 -12 3 -25 9 -28 14 -3
5 -15 9 -27 9 -12 0 -29 5 -37 11 -12 8 -10 9 10 5 14 -3 32 -6 40 -6z m-2260
-22 c0 -7 -5 -20 -10 -28 -8 -12 -10 -9 -10 13 0 15 5 27 10 27 6 0 10 -6 10
-12z m706 -37 c-3 -22 -2 -42 2 -45 5 -3 9 -63 10 -133 2 -181 -16 -136 -24
61 -6 123 -4 156 6 156 9 0 11 -11 6 -39z m-99 -103 c-2 -13 -4 -5 -4 17 -1
22 1 32 4 23 2 -10 2 -28 0 -40z m-946 -514 c53 -133 55 -144 25 -144 -16 0
-27 7 -31 20 -5 16 -15 20 -52 20 -36 0 -46 -4 -50 -20 -4 -14 -14 -20 -35
-20 -25 0 -29 3 -23 18 4 9 19 51 35 92 52 138 48 132 72 128 18 -2 30 -21 59
-94z m203 86 c38 -14 53 -53 33 -84 -14 -21 -14 -26 -2 -36 8 -7 15 -27 15
-46 0 -48 -29 -64 -112 -64 l-68 0 0 113 c0 63 3 117 7 120 10 10 98 8 127 -3z
m231 -15 c30 -29 31 -41 6 -48 -12 -3 -27 3 -37 14 -20 22 -47 25 -62 6 -15
-18 -3 -32 43 -51 21 -9 47 -24 57 -33 27 -24 23 -68 -9 -93 -49 -39 -153 -10
-153 42 0 24 31 23 53 -2 20 -24 62 -26 71 -4 9 23 1 32 -55 55 -72 31 -88 72
-47 116 31 33 100 32 133 -2z m215 3 c73 -79 32 -228 -64 -228 -98 0 -144 149
-69 224 34 35 102 37 133 4z m118 -80 l3 -98 43 0 c26 0 48 -6 56 -15 18 -21
-2 -27 -86 -23 l-69 3 -1 110 c0 61 2 114 4 118 2 5 14 7 25 5 21 -3 22 -9 25
-100z m172 5 c5 -100 15 -119 54 -109 25 6 25 9 28 104 3 96 3 97 28 97 25 0
25 0 25 -98 0 -96 -1 -100 -28 -123 -32 -27 -75 -31 -116 -9 -38 19 -41 30
-41 142 0 92 1 94 23 91 21 -3 22 -9 27 -95z m360 77 c0 -19 -14 -25 -52 -22
-16 2 -18 -9 -18 -98 l0 -100 -30 0 -29 0 -3 98 -3 97 -32 3 c-31 3 -42 19
-26 35 3 4 48 7 100 7 86 0 93 -1 93 -20z m184 4 c9 -24 1 -28 -57 -29 -49 0
-52 -2 -55 -27 -3 -26 -1 -27 45 -30 35 -2 49 -7 51 -20 3 -14 -6 -17 -45 -20
-44 -3 -48 -5 -51 -30 -3 -26 -2 -27 55 -30 44 -2 58 -7 58 -18 0 -12 -17 -16
-82 -18 l-83 -3 0 121 0 120 79 0 c64 0 80 -3 85 -16z m-2651 -89 c26 -4 49
-11 52 -15 4 -7 -6 -53 -31 -137 -3 -13 -10 -23 -15 -23 -5 0 -9 1 -9 3 0 1
-4 28 -9 59 -8 47 -17 64 -48 94 -35 33 -36 36 -13 31 14 -3 46 -9 73 -12z
m493 -283 c70 -36 134 -126 134 -188 0 -23 -3 -24 -65 -24 -54 0 -67 3 -71 18
-27 83 -52 102 -133 102 -38 0 -56 -6 -80 -25 -42 -36 -55 -83 -55 -205 -1
-172 33 -230 138 -230 25 0 57 5 71 12 27 12 55 54 55 83 0 12 13 15 70 15 66
0 70 -1 70 -23 0 -38 -49 -124 -87 -152 -66 -51 -186 -70 -275 -43 -60 18
-131 87 -159 155 -21 50 -24 74 -24 183 0 123 1 127 35 195 37 74 82 117 146
141 56 21 177 13 230 -14z m369 -322 l0 -335 -67 -3 -68 -3 0 341 0 341 68 -3
67 -3 0 -335z m333 230 c35 -58 93 -154 130 -215 l67 -110 5 215 5 215 68 3
67 3 0 -341 0 -340 -69 0 -69 0 -121 198 c-66 108 -127 206 -135 217 -14 18
-15 -1 -16 -198 l0 -218 -67 3 -68 3 -3 338 -2 338 72 -3 72 -3 64 -105z m919
70 c2 -19 0 -45 -2 -57 -5 -23 -8 -23 -161 -23 l-155 0 3 -77 3 -78 133 -3
132 -3 0 -54 0 -55 -135 0 -136 0 3 -87 3 -88 158 -3 158 -3 -3 -52 -3 -52
-227 -3 -228 -2 0 333 c0 184 3 337 7 341 4 3 106 5 227 4 l221 -3 2 -35z
m276 -2 c91 -261 150 -424 156 -430 4 -4 29 56 56 135 27 78 65 185 85 237
l35 95 90 0 90 0 0 -335 0 -335 -69 -3 -69 -3 5 235 c3 130 2 233 -1 230 -3
-3 -42 -107 -87 -232 l-82 -227 -50 -3 -49 -3 -83 228 c-81 225 -108 284 -96
213 4 -19 7 -125 9 -235 l2 -200 -70 0 -70 0 -3 325 c-1 179 0 330 3 337 3 9
31 13 94 13 l89 0 15 -42z m1079 -278 c65 -173 121 -325 124 -338 6 -23 5 -23
-67 -20 l-74 3 -24 68 -24 68 -121 -3 -121 -3 -21 -65 -22 -65 -62 -3 c-35 -2
-69 -1 -76 2 -9 3 3 46 45 158 32 84 89 235 126 336 l68 183 65 -3 66 -3 118
-315z m248 210 c0 -5 -4 -10 -10 -10 -5 0 -10 5 -10 10 0 6 5 10 10 10 6 0 10
-4 10 -10z m30 -21 c0 -5 -4 -9 -10 -9 -5 0 -10 7 -10 16 0 8 5 12 10 9 6 -3
10 -10 10 -16z m-1875 -279 c4 -6 -5 -10 -20 -10 -15 0 -24 4 -20 10 3 6 12
10 20 10 8 0 17 -4 20 -10z"/>
<path d="M2437 3322 c-16 -7 -45 -16 -65 -18 -20 -3 -53 -10 -72 -17 -56 -19
-114 -98 -108 -147 3 -27 12 -29 80 -18 26 5 37 3 35 -5 -1 -7 12 -10 38 -8
42 3 105 42 133 83 16 23 25 89 13 98 -4 3 -11 14 -16 26 -9 18 -12 19 -38 6z
m-17 -102 c0 -5 -4 -10 -10 -10 -5 0 -10 5 -10 10 0 6 5 10 10 10 6 0 10 -4
10 -10z"/>
<path d="M2408 3102 c-7 -16 -70 -54 -94 -57 -14 -1 -33 -10 -42 -18 -14 -15
-13 -17 12 -27 37 -14 47 -13 79 9 25 16 77 81 77 95 0 9 -28 7 -32 -2z"/>
<path d="M1998 3060 c2 -16 9 -30 14 -30 5 0 7 4 3 9 -3 5 -1 12 5 16 17 10
11 35 -8 35 -15 0 -18 -6 -14 -30z"/>
<path d="M2057 2983 c-4 -3 -7 -11 -7 -17 0 -6 5 -5 12 2 6 6 9 14 7 17 -3 3
-9 2 -12 -2z"/>
<path d="M2259 2929 c-6 -3 -7 -18 -3 -33 l6 -27 24 22 c13 12 24 27 24 34 0
12 -34 15 -51 4z"/>
<path d="M2354 2864 c-10 -15 -29 -39 -41 -54 -22 -27 -30 -50 -16 -50 17 0
103 103 103 124 0 16 -29 3 -46 -20z"/>
<path d="M2085 2830 c-3 -5 -1 -10 4 -10 6 0 11 5 11 10 0 6 -2 10 -4 10 -3 0
-8 -4 -11 -10z"/>
<path d="M2380 2302 c0 -11 5 -24 10 -27 6 -4 10 -15 8 -25 -2 -11 0 -19 5
-20 23 -1 27 1 27 14 0 8 -8 22 -17 32 -10 10 -18 21 -18 25 0 4 -3 11 -7 15
-5 4 -8 -2 -8 -14z"/>
<path d="M1781 1367 c-16 -41 -14 -57 8 -57 27 0 30 10 16 50 l-13 35 -11 -28z"/>
<path d="M1977 1423 c-4 -3 -7 -17 -7 -30 0 -21 4 -24 33 -21 41 4 52 42 15
52 -29 7 -33 7 -41 -1z"/>
<path d="M1977 1324 c-13 -13 -7 -52 8 -58 8 -3 27 -1 41 4 38 15 30 54 -11
58 -17 2 -34 0 -38 -4z"/>
<path d="M2402 1418 c-28 -35 -21 -130 11 -150 42 -27 85 33 72 101 -9 45 -21
61 -50 61 -12 0 -27 -6 -33 -12z"/>
<path d="M3929 808 c-19 -56 -34 -109 -34 -117 0 -10 18 -13 75 -13 41 0 74 4
74 9 -4 22 -67 209 -74 216 -4 5 -23 -38 -41 -95z"/>
<path d="M415 3649 c-4 -6 -5 -12 -3 -15 8 -7 68 8 68 17 0 13 -58 11 -65 -2z"/>
<path d="M130 3250 c17 -11 67 -14 57 -3 -4 3 -22 8 -39 10 -24 2 -29 0 -18
-7z"/>
<path d="M4890 3153 c0 -10 5 -25 10 -33 7 -11 10 -7 10 18 0 17 -4 32 -10 32
-5 0 -10 -8 -10 -17z"/>
<path d="M4675 1439 c-11 -17 1 -21 15 -4 8 9 8 15 2 15 -6 0 -14 -5 -17 -11z"/>
<path d="M4636 1403 c-6 -14 -5 -15 5 -6 7 7 10 15 7 18 -3 3 -9 -2 -12 -12z"/>
<path d="M4380 1139 c0 -5 5 -7 10 -4 6 3 10 8 10 11 0 2 -4 4 -10 4 -5 0 -10
-5 -10 -11z"/>
</g>
</svg>
